IKResults
version=1
nRows=11
nColumns=40
inDegrees=yes

Units are S.I. units (second, meters, Newtons, ...)
Angles are in degrees.

endheader
time	pelvis_tilt	pelvis_list	pelvis_rotation	pelvis_tx	pelvis_ty	pelvis_tz	hip_flexion_r	hip_adduction_r	hip_rotation_r	knee_angle_r	knee_angle_r_beta	ankle_angle_r	subtalar_angle_r	mtp_angle_r	hip_flexion_l	hip_adduction_l	hip_rotation_l	knee_angle_l	knee_angle_l_beta	ankle_angle_l	subtalar_angle_l	mtp_angle_l	lumbar_extension	lumbar_bending	lumbar_rotation	arm_flex_r	arm_add_r	arm_rot_r	elbow_flex_r	pro_sup_r	wrist_flex_r	wrist_dev_r	arm_flex_l	arm_add_l	arm_rot_l	elbow_flex_l	pro_sup_l	wrist_flex_l	wrist_dev_l
      0.00000000	     14.57849474	      4.73306997	      0.66567069	     -1.10704703	      0.92005526	     -1.41106618	    -28.03787863	     -1.75706008	    -13.83946920	    -20.39439671	     -0.35594937	     15.79296826	     -7.39320794	     -4.36311486	     10.12791434	      0.07468444	     27.93765456	    -14.14900159	     -0.24694666	      1.69021013	    -11.30136405	     -6.19799443	    -22.95449651	     -5.44406891	      4.42161979	      4.04081719	    -17.93286136	      0.03749427	     46.23248817	     89.95437384	      0.00000000	      0.00000000	    -10.21354670	      5.98154090	     19.56667615	     10.45597720	     89.95437384	      0.00000000	      0.00000000
      0.01000000	     14.34739171	      4.69909345	      0.65693380	     -1.09285545	      0.91817087	     -1.41280453	    -28.41142627	     -1.93598414	    -13.50511029	    -21.03610538	     -0.36714930	     15.40639871	     -7.20828967	     -4.29931946	     10.71659421	     -0.05380165	     27.52086015	    -14.38821761	     -0.25112177	      1.66420976	    -11.03610582	     -6.11211456	    -22.58103206	     -5.46332438	      4.44451548	      4.03163197	    -18.06405155	     -0.10239572	     46.42305834	     89.95437384	      0.00000000	      0.00000000	    -10.81472818	      6.04051086	     19.58407623	     10.50955626	     89.95437384	      0.00000000	      0.00000000
      0.02000000	     14.29395797	      5.06396110	     -0.13894796	     -1.07815398	      0.91689202	     -1.41392005	    -28.63070409	     -2.89763771	    -12.38949504	    -22.31160358	     -0.38941094	     14.51171100	     -7.65429146	     -4.28114994	     10.59932856	     -0.64976199	     27.44778682	    -14.26130963	     -0.24890681	      2.15463798	    -11.02148550	     -6.32723244	    -22.32520649	     -6.14034259	      5.14233015	      3.72362511	    -17.95033246	     -1.14146464	     46.74273758	     89.95437384	      0.00000000	      0.00000000	    -10.71643477	      5.98942807	     21.66554279	      9.57799992	     89.95437384	      0.00000000	      0.00000000
      0.03000000	     14.10202339	      5.02603657	     -0.45679801	     -1.06336411	      0.91565561	     -1.41516091	    -28.78892455	     -3.14807915	    -11.37842250	    -23.35590217	     -0.40763739	     13.49226380	     -8.27498372	     -4.27221122	     10.79198251	     -0.79566914	     26.29103314	    -14.88538737	     -0.25979902	      2.25003068	    -10.13363496	     -6.58150959	    -21.91546455	     -6.29971796	      5.30150366	      3.71483689	    -17.91158038	     -1.26593307	     46.60981157	     89.95437384	      0.00000000	      0.00000000	    -10.93215212	      5.92233548	     23.56753943	      9.13101829	     89.95437384	      0.00000000	      0.00000000
      0.04000000	     13.89341386	      4.99449656	     -0.74235231	     -1.04774827	      0.91460097	     -1.41644072	    -28.86988028	     -3.47217740	    -10.86516686	    -24.56330623	     -0.42871057	     12.30349781	     -8.31832212	     -4.08946950	     10.89844565	     -0.92022756	     25.08418524	    -15.87305221	     -0.27703702	      2.44446503	     -9.47341002	     -6.52943095	    -21.36047467	     -6.44720151	      5.52669412	      3.45822856	    -17.78510759	     -1.61024489	     46.43393039	     89.95437384	      0.00000000	      0.00000000	    -11.31325044	      6.00274024	     23.96212668	      8.96317670	     89.95437384	      0.00000000	      0.00000000
      0.05000000	     13.67810357	      4.85820029	     -0.94175799	     -1.03209545	      0.91392631	     -1.41772089	    -28.92457000	     -3.47439341	     -9.82332809	    -25.67533016	     -0.44811905	     10.28606559	     -9.85603568	     -3.60364194	     10.90673405	     -1.06523709	     23.03798705	    -16.95750418	     -0.29596428	      2.59879951	     -7.64197273	     -6.63721856	    -20.83472342	     -6.47273363	      5.63449921	      3.18985374	    -17.65802245	     -1.80960965	     46.21317779	     89.95437384	      0.00000000	      0.00000000	    -11.49434785	      6.01462763	     25.35319251	      8.65516358	     89.95437384	      0.00000000	      0.00000000
      0.06000000	     13.68314015	      4.83891569	     -1.24212671	     -1.01595943	      0.91378408	     -1.41914159	    -28.95438154	     -3.86328778	     -9.59916606	    -27.30553665	     -0.47657152	      8.52768976	     -9.72074952	     -3.29167447	     10.77177084	     -1.14785332	     22.46666608	    -18.47586881	     -0.32246474	      1.31292272	     -6.28539022	     -6.33546347	    -20.47986442	     -6.60930049	      5.76383068	      2.86239870	    -17.53025697	     -1.96346602	     45.93321048	     89.95437384	      0.00000000	      0.00000000	    -11.87531175	      6.07583038	     25.15661036	      8.71668082	     89.95437384	      0.00000000	      0.00000000
      0.07000000	     13.64170225	      4.97624017	     -1.50771378	     -0.99969084	      0.91401966	     -1.42061988	    -28.86400266	     -4.29720414	     -9.07623168	    -29.06564185	     -0.50729115	      6.71386401	     -9.52481608	     -2.98810687	     10.68773927	     -1.37495111	     21.47136345	    -19.81152941	     -0.34577642	      0.02459311	     -5.48240121	     -6.04633548	    -20.08290169	     -6.92468212	      5.82099208	      2.44690858	    -17.38605735	     -2.04472824	     45.60784177	     89.95437384	      0.00000000	      0.00000000	    -12.29770838	      6.14721658	     24.90030967	      9.04169209	     89.95437384	      0.00000000	      0.00000000
      0.08000000	     13.92250554	      5.50500429	     -1.92360119	     -0.98339272	      0.91567816	     -1.42226474	    -28.81186979	     -5.14866896	     -8.74712654	    -31.09999273	     -0.54279727	      2.26778790	    -12.87261562	     -1.31187847	      9.80425045	     -2.18306461	     20.50231317	    -20.15791723	     -0.35182203	     -0.72916331	     -3.70637750	     -6.13702119	    -19.99504580	     -7.64812487	      5.90494836	      2.13592738	    -17.04175015	     -2.35830878	     44.81890014	     89.95437384	      0.00000000	      0.00000000	    -12.23754039	      6.31215194	     24.10710703	      8.70839424	     89.95437384	      0.00000000	      0.00000000
      0.09000000	     14.17901461	      6.00574002	     -2.06881311	     -0.96684716	      0.91744012	     -1.42411451	    -28.46994471	     -6.05895870	     -9.14811140	    -33.66249041	     -0.58752129	     -1.93745627	    -13.60869948	     -0.29912944	      9.26302651	     -2.80140830	     19.67540286	    -21.53819845	     -0.37591248	     -0.17295153	     -2.77233325	     -6.11210679	    -19.90417234	     -8.27999199	      5.64177403	      1.73042907	    -16.72301728	     -2.43742971	     44.13970859	     89.95437384	      0.00000000	      0.00000000	    -12.29846476	      6.48542254	     23.36936769	      8.67817975	     89.95437384	      0.00000000	      0.00000000
      0.10000000	     14.53939738	      6.68299543	     -2.01197496	     -0.95086947	      0.91995851	     -1.42638447	    -27.93570498	     -6.96866735	     -9.47037840	    -36.67350315	     -0.64007338	     -5.78034576	    -15.22049340	      7.40149921	      8.19393060	     -4.25820143	     16.70370535	    -22.04547349	     -0.38476610	      0.93509499	      1.93224408	     -6.50008997	    -20.06966953	     -9.01143623	      5.14436169	      1.33869425	    -16.36103950	     -2.59772376	     43.45663105	     89.95437384	      0.00000000	      0.00000000	    -12.30149416	      6.74604883	     21.21694755	      8.91159366	     89.95437384	      0.00000000	      0.00000000
